# xmcd CD database file
#
# Track frame offsets:
#	150
#	18250
#	29550
#	46082
#	64172
#
# Disc length: 1142 seconds
#
# Revision: 0
# Processed by: cddbd v1.5.1PL0 Copyright (c) Steve Scherf et al.
# Submitted via: CDex 1.51
#
DISCID=38047405
DTITLE=THE BABYS - 少年ナイフ
DYEAR=2005
DGENRE=Rock
TTITLE0=ロマンティックなスピードで
TTITLE1=合言葉
TTITLE2=1978
TTITLE3=My little girl
TTITLE4=少年ナイフ
EXTD=YEAR: 2005
EXTT0=
EXTT1=
EXTT2=
EXTT3=
EXTT4=
PLAYORDER=
